<svg width="589" height="472" viewBox="0 0 589 472" fill="none" xmlns="http://www.w3.org/2000/svg">
<path d="M293.886 141L301.386 67.5L190.386 92.5C164.574 99.7224 149.024 101.35 124.886 113C106.394 121.925 96.2245 127.935 80.3856 141C54.4381 162.404 42.5353 178.726 26.8856 208.5C8.35198 243.76 2.08775 267.202 0.385578 307C-1.23029 344.78 1.88565 370.5 16.3856 402.5C31.5652 436 63.8854 463.5 106.886 470C127.737 473.152 160.886 470 160.886 470L258.886 448L277.886 287L300.886 283L283.886 442.5L355.886 426L373.886 266L562.885 223L570.385 147L358.136 196.25C358.136 196.25 147.317 242.636 145.886 245.5C144.386 248.5 135.886 320.625 137.386 321C138.886 321.375 203.386 307 203.386 307L194.886 390.5C175.711 396.665 164.202 398.717 142.386 400L141.807 399.914C128.623 397.962 119.624 396.629 110.886 392C81.7295 376.555 71.6191 349.712 70.3856 307C70.3856 275 78.8856 245.5 95.3856 224C109.386 202 125.386 183.5 160.886 172.5L293.886 141Z" fill="white"/>
<path d="M311.385 184.5L324.885 60.5L588.385 0L579.385 74.5L389.885 118L384.885 168.5L311.385 184.5Z" fill="white"/>
</svg>
